# xmcd
#
# Track frame offsets:
#	150
#	34628
#	55243
#	74289
#	96250
#	113070
#	134322
#	155619
#	177298
#	204222
#	223501
#	241359
#	255795
#	269222
#	290147
#	321134
#
# Disc length: 4540 seconds
#
# Revision: 0
# Processed by: cddbd v1.4b42PL1 Copyright (c) Steve Scherf et al.
# Submitted via: EasyCDDAExtractor 4.5.0.2
#
DISCID=ed11ba10
DTITLE=Collection by Creator -  Sola Collection
DYEAR=2001
DGENRE=Blues
TTITLE0=Leonard Cohen. Waiting For The Miracle
TTITLE1=Duran Duran. Come Undone
TTITLE2=Cher And Eros Ramazotti. Piu Che Puoi
TTITLE3=Tanita Tikaram. Twist In My Sobriety
TTITLE4=Madonna. La Isla Bonita
TTITLE5=B. Carlisle. La luna
TTITLE6=Adams-Sting-Stewart. All For One
TTITLE7=Tony Braxton. Spanish Guitar
TTITLE8=Bryan Adams. Please, Forgive Me
TTITLE9=Chris de Burgh. The Lady In Red
TTITLE10=Nick Cave And The Bad Seeds. Henry Lee
TTITLE11=Overkill. Girl, You'll Be A Woman Soon
TTITLE12=B. Carlisle. California
TTITLE13=Sting. Shape Of My Heart
TTITLE14=Cris Ree. The Road To Hell
TTITLE15=M.Crawford. The Phantom Of The Opera
EXTD=
EXTT0=
EXTT1=
EXTT2=
EXTT3=
EXTT4=
EXTT5=
EXTT6=
EXTT7=
EXTT8=
EXTT9=
EXTT10=
EXTT11=
EXTT12=
EXTT13=
EXTT14=
EXTT15=
PLAYORDER=
